<?xml version="1.0"?>
<svg width="557" height="165" xmlns="http://www.w3.org/2000/svg" xmlns:svg="http://www.w3.org/2000/svg" preserveAspectRatio="xMidYMid meet" version="1.0">
 <g class="layer">
  <title>Layer 1</title>
  <g fill="#000000" id="svg_1" transform="matrix(0.1 0 0 -0.1 0 0)">
   <path d="m2820,-930l0,-460l85,0l85,0l0,203c0,183 2,205 20,234c27,44 63,65 111,65c50,-1 85,-29 99,-81c5,-20 10,-123 10,-228l0,-193l80,0l80,0l0,226c0,264 -6,299 -64,359c-81,84 -225,85 -313,3l-23,-21l0,176l0,177l-85,0l-85,0l0,-460z" fill="#0054d3" id="svg_2"/>
   <path d="m120,-496c0,-9 269,-856 280,-882c9,-21 15,-22 119,-22l109,0l150,449c83,247 147,452 144,455c-11,12 -169,6 -179,-6c-9,-12 -177,-543 -208,-658c-7,-26 -15,-39 -18,-30c-3,8 -35,119 -71,245c-36,127 -79,281 -97,343l-32,112l-99,0c-54,0 -98,-3 -98,-6z" fill="#0054d3" id="svg_3"/>
   <path d="m4574,-499c-2,-2 -4,-204 -4,-447l0,-443l91,-3c50,-2 93,-1 95,1c2,2 4,82 4,178l0,173l160,0l160,0l0,80l0,80l-160,0l-160,0l0,110l0,110l183,2l182,3l0,80l0,80l-273,0c-151,0 -275,-2 -278,-4z" fill="#0054d3" id="svg_4"/>
   <path d="m5214,-504c-2,-6 -3,-209 -2,-451l3,-439l90,1l90,1l0,449l0,448l-88,1c-59,1 -90,-2 -93,-10z" fill="#0054d3" id="svg_5"/>
   <path d="m1053,-761c-108,-42 -180,-149 -190,-283c-11,-146 54,-273 171,-333c43,-23 64,-27 136,-28c74,0 93,4 143,29c72,35 130,105 153,183c25,85 16,213 -20,286c-33,67 -100,130 -163,151c-64,22 -166,20 -230,-5zm188,-135c72,-37 99,-211 48,-305c-46,-85 -139,-101 -205,-35c-74,74 -73,249 1,323c28,28 40,33 79,33c26,0 61,-7 77,-16z" fill="#0054d3" id="svg_6"/>
   <path d="m2375,-764c-108,-50 -166,-145 -173,-284c-8,-155 43,-269 149,-327c48,-27 63,-30 139,-30c96,0 140,18 197,77c35,37 72,111 73,146c0,21 -4,22 -74,22c-69,0 -75,-2 -81,-22c-35,-115 -168,-130 -215,-25c-27,58 -27,195 -1,252c26,58 53,78 105,79c50,1 81,-20 103,-71l13,-33l75,0c75,0 75,0 75,27c0,67 -71,156 -154,194c-61,28 -167,25 -231,-5z" fill="#0054d3" id="svg_7"/>
   <path d="m3659,-753c-135,-51 -202,-156 -202,-322c0,-197 99,-317 272,-332c119,-10 214,34 272,125c46,73 42,82 -41,82c-60,0 -71,-3 -80,-21c-31,-57 -142,-79 -194,-38c-32,25 -53,63 -57,104l-4,30l210,5l210,5l-2,62c-3,129 -54,229 -141,280c-37,22 -60,27 -126,30c-51,2 -94,-2 -117,-10zm177,-138c22,-20 44,-74 44,-106c0,-10 -32,-13 -125,-13c-120,0 -125,1 -125,21c0,35 32,90 64,111c41,25 108,19 142,-13z" fill="#0054d3" id="svg_8"/>
   <path d="m4383,-761c-24,-12 -54,-34 -68,-51l-25,-30l0,46l0,46l-80,0l-80,0l0,-320l0,-320l80,0l80,0l0,155c0,194 10,244 56,285c30,26 42,30 94,30l60,0l0,90l0,90l-37,0c-21,0 -57,-9 -80,-21z" fill="#0054d3" id="svg_9"/>
   <path d="m1560,-987c0,-138 5,-254 11,-277c6,-22 29,-56 53,-81c72,-71 181,-83 272,-30c23,14 45,32 50,42c6,14 9,11 13,-17l6,-35l78,-3l77,-3l0,321l0,321l-82,-3l-83,-3l-5,-223l-5,-224l-33,-29c-59,-53 -158,-35 -181,33c-7,18 -11,117 -11,239l0,209l-80,0l-80,0l0,-237z" fill="#0054d3" id="svg_10"/>
  </g>
 </g>
</svg>